<svg width="1022" height="376" viewBox="0 0 1022 376" fill="none" xmlns="http://www.w3.org/2000/svg">
<path d="M912.623 250.481L805.633 312.371L805.54 188.528L912.623 250.481Z" fill="#005EB8" stroke="white" stroke-linecap="round" stroke-linejoin="round"/>
<path d="M805.541 188.402L805.417 63.6899L912.81 126.388L805.541 188.402Z" fill="#005EB8" stroke="white" stroke-linecap="round" stroke-linejoin="round"/>
<path d="M912.81 125.799L805.417 63.66L912.81 1.552L1020.23 63.66L912.81 125.799Z" fill="#43B3FF" stroke="white" stroke-linecap="round" stroke-linejoin="round"/>
<path d="M1020.23 188.498L913.212 250.358L913.026 250.264L912.623 250.482L805.54 188.529V188.405L912.809 126.39L1020.23 188.498Z" fill="#005193" stroke="white" stroke-linecap="round" stroke-linejoin="round"/>
<path d="M805.417 188.498L805.541 188.405V188.529L805.417 188.498Z" fill="#0580E5" stroke="white" stroke-linecap="round" stroke-linejoin="round"/>
<path d="M913.211 250.357L912.808 250.575L912.622 250.481L913.025 250.264L913.211 250.357Z" fill="#0580E5" stroke="white" stroke-linecap="round" stroke-linejoin="round"/>
<path d="M1020.45 312.371L913.028 374.448L805.635 312.371L912.625 250.48L912.811 250.573L913.214 250.356L1020.45 312.371Z" fill="#005193" stroke="white" stroke-linecap="round" stroke-linejoin="round"/>
<path d="M913.211 250.357L912.808 250.575L912.622 250.481L913.025 250.264L913.211 250.357Z" fill="#0580E5" stroke="white" stroke-linecap="round" stroke-linejoin="round"/>
<path d="M752.652 63.66L645.258 125.799L537.834 63.66L645.258 1.552L752.652 63.66Z" fill="#43B3FF" stroke="white" stroke-linecap="round" stroke-linejoin="round"/>
<path d="M645.256 250.046L644.792 374.262L537.368 312.185H537.709L645.256 250.046Z" fill="#005193" stroke="white" stroke-linecap="round" stroke-linejoin="round"/>
<path d="M752.372 187.877V312.186L644.793 374.263L645.258 250.047L752.372 187.877Z" fill="#0580E5" stroke="white" stroke-linecap="round" stroke-linejoin="round"/>
<path d="M752.373 187.876L645.258 250.046L538.175 187.535L645.258 125.799L752.373 187.876Z" fill="#005193" stroke="white" stroke-linecap="round" stroke-linejoin="round"/>
<path d="M645.258 125.798L538.175 187.533L537.834 63.6899L645.258 125.798Z" fill="#005EB8" stroke="white" stroke-linecap="round" stroke-linejoin="round"/>
<path d="M109.408 125.767L109.191 249.859V249.921L108.943 250.045L1.76685 188.03L2.01472 63.6899L109.408 125.767Z" fill="#0580E5" stroke="white" stroke-linecap="round" stroke-linejoin="round"/>
<path d="M109.19 249.919L108.942 374.26L1.54932 312.121L1.76621 188.029L108.942 250.044L109.19 249.919Z" fill="#0580E5" stroke="white" stroke-linecap="round" stroke-linejoin="round"/>
<path d="M216.799 63.6915L109.406 125.768L2.01318 63.6915L109.406 1.5835L216.799 63.6915Z" fill="#43B3FF" stroke="white" stroke-linecap="round" stroke-linejoin="round"/>
<path d="M216.798 63.6899L216.334 312.122L108.94 374.261L109.188 249.921V249.859L109.405 125.767L216.798 63.6899Z" fill="#0580E5" stroke="white" stroke-linecap="round" stroke-linejoin="round"/>
<path d="M216.335 187.877L109.189 249.861" stroke="white" stroke-linecap="round" stroke-linejoin="round"/>
<path d="M1.76621 188.001L1.54932 187.877" stroke="white" stroke-linecap="round" stroke-linejoin="round"/>
<path d="M270.001 188.061L377.115 249.766L269.536 312.091L270.001 63.6899L377.394 125.798L270.001 188.061Z" fill="#005EB8" stroke="white" stroke-linecap="round" stroke-linejoin="round"/>
<path d="M484.817 63.6915L377.393 125.799L270 63.6915L377.393 1.5835L484.817 63.6915Z" fill="#43B3FF" stroke="white" stroke-linecap="round" stroke-linejoin="round"/>
<path d="M377.393 125.799L377.114 249.767L270 188.062L377.393 125.799Z" fill="#005193" stroke="white" stroke-linecap="round" stroke-linejoin="round"/>
<path d="M484.819 63.6899L484.354 312.184L376.93 374.261L377.116 249.766L377.394 125.798L484.819 63.6899Z" fill="#0580E5" stroke="white" stroke-linecap="round" stroke-linejoin="round"/>
<path d="M269.535 312.061L269.35 312.154" stroke="white" stroke-linecap="round" stroke-linejoin="round"/>
<path d="M484.571 187.659L377.116 249.767" stroke="white" stroke-linecap="round" stroke-linejoin="round"/>
</svg>
