<svg width="1202" height="443" viewBox="0 0 1202 443" fill="none" xmlns="http://www.w3.org/2000/svg">
<g opacity="0.2">
<path d="M1072.56 294.722L946.962 367.252L946.853 222.119L1072.56 294.722Z" stroke="white" stroke-width="5" stroke-linecap="round" stroke-linejoin="round"/>
<path d="M946.854 221.972L946.708 75.8201L1072.78 149.296L946.854 221.972Z" stroke="white" stroke-width="5" stroke-linecap="round" stroke-linejoin="round"/>
<path d="M1072.78 148.606L946.708 75.7849L1072.78 3L1198.89 75.7849L1072.78 148.606Z" stroke="white" stroke-width="5" stroke-linecap="round" stroke-linejoin="round"/>
<path d="M1198.89 222.084L1073.26 294.578L1073.04 294.468L1072.56 294.723L946.853 222.12V221.975L1072.78 149.299L1198.89 222.084Z" stroke="white" stroke-width="5" stroke-linecap="round" stroke-linejoin="round"/>
<path d="M946.708 222.084L946.855 221.974V222.121L946.708 222.084Z" fill="#0580E5" stroke="white" stroke-width="5" stroke-linecap="round" stroke-linejoin="round"/>
<path d="M1073.25 294.577L1072.78 294.832L1072.56 294.723L1073.04 294.468L1073.25 294.577Z" fill="#0580E5" stroke="white" stroke-width="5" stroke-linecap="round" stroke-linejoin="round"/>
<path d="M1199.15 367.251L1073.04 440L946.962 367.251L1072.56 294.721L1072.78 294.83L1073.26 294.576L1199.15 367.251Z" stroke="white" stroke-width="5" stroke-linecap="round" stroke-linejoin="round"/>
<path d="M1073.25 294.577L1072.78 294.832L1072.56 294.723L1073.04 294.468L1073.25 294.577Z" fill="#0580E5" stroke="white" stroke-width="5" stroke-linecap="round" stroke-linejoin="round"/>
<path d="M884.762 75.7849L758.687 148.606L632.576 75.7849L758.687 3L884.762 75.7849Z" stroke="white" stroke-width="5" stroke-linecap="round" stroke-linejoin="round"/>
<path d="M758.687 294.213L758.142 439.782L632.03 367.034H632.43L758.687 294.213Z" stroke="white" stroke-width="5" stroke-linecap="round" stroke-linejoin="round"/>
<path d="M884.434 221.355V367.034L758.141 439.783L758.686 294.213L884.434 221.355Z" stroke="white" stroke-width="5" stroke-linecap="round" stroke-linejoin="round"/>
<path d="M884.434 221.355L758.687 294.212L632.976 220.955L758.687 148.606L884.434 221.355Z" stroke="white" stroke-width="5" stroke-linecap="round" stroke-linejoin="round"/>
<path d="M758.687 148.605L632.976 220.953L632.576 75.8201L758.687 148.605Z" stroke="white" stroke-width="5" stroke-linecap="round" stroke-linejoin="round"/>
<path d="M129.621 148.569L129.367 293.993V294.066L129.076 294.211L3.25543 221.535L3.54643 75.8201L129.621 148.569Z" stroke="white" stroke-width="5" stroke-linecap="round" stroke-linejoin="round"/>
<path d="M129.366 294.064L129.075 439.78L3 366.958L3.25462 221.534L129.075 294.21L129.366 294.064Z" stroke="white" stroke-width="5" stroke-linecap="round" stroke-linejoin="round"/>
<path d="M255.696 75.822L129.621 148.571L3.54626 75.822L129.621 3.03711L255.696 75.822Z" stroke="white" stroke-width="5" stroke-linecap="round" stroke-linejoin="round"/>
<path d="M255.695 75.8201L255.149 366.96L129.074 439.781L129.365 294.066V293.993L129.62 148.569L255.695 75.8201Z" stroke="white" stroke-width="5" stroke-linecap="round" stroke-linejoin="round"/>
<path d="M255.15 221.355L129.366 293.995" stroke="white" stroke-width="5" stroke-linecap="round" stroke-linejoin="round"/>
<path d="M3.25501 221.501L3 221.355" stroke="white" stroke-width="5" stroke-linecap="round" stroke-linejoin="round"/>
<path d="M318.151 221.572L443.899 293.884L317.606 366.923L318.151 75.8201L444.226 148.605L318.151 221.572Z" stroke="white" stroke-width="5" stroke-linecap="round" stroke-linejoin="round"/>
<path d="M570.337 75.8218L444.226 148.607L318.151 75.8218L444.226 3.03687L570.337 75.8218Z" stroke="white" stroke-width="5" stroke-linecap="round" stroke-linejoin="round"/>
<path d="M444.226 148.606L443.898 293.885L318.151 221.573L444.226 148.606Z" stroke="white" stroke-width="5" stroke-linecap="round" stroke-linejoin="round"/>
<path d="M570.337 75.8201L569.792 367.032L443.68 439.781L443.898 293.884L444.226 148.605L570.337 75.8201Z" stroke="white" stroke-width="5" stroke-linecap="round" stroke-linejoin="round"/>
<path d="M317.605 366.888L317.387 366.997" stroke="white" stroke-width="5" stroke-linecap="round" stroke-linejoin="round"/>
<path d="M570.047 221.1L443.9 293.885" stroke="white" stroke-width="5" stroke-linecap="round" stroke-linejoin="round"/>
</g>
</svg>
