<svg width="297" height="195" viewBox="0 0 297 195" fill="none" xmlns="http://www.w3.org/2000/svg">
<g clip-path="url(#clip0)">
<path fill-rule="evenodd" clip-rule="evenodd" d="M0.4 104.5H11C10.9 105.2 10.8 105.7 10.8 106.2C10.8 108.9 12.6 110.2 16.2 110.2C20 110.2 22.2 108.8 22.8 106C22.9 105.7 22.9 105.3 22.9 105C22.9 103.7 22 102.9 20.2 102.4L11.3 100.1C6.3 98.8 3.8 96.2 3.8 92.4C3.8 91.7 3.9 90.9 4.1 90C4.8 86.7 6.7 84.1 9.7 82C13.1 79.7 17.4 78.5 22.8 78.5C31.8 78.5 36.3 81.3 36.3 86.8C36.3 87.7 36.2 88.8 35.9 90.2H25.2C25.4 89.5 25.5 88.9 25.5 88.5C25.5 86.3 24.1 85.1 21.4 85.1C19.9 85.1 18.6 85.5 17.5 86.2C16.4 86.9 15.7 87.9 15.5 89C15.4 89.3 15.4 89.6 15.4 89.9C15.4 91.3 16.4 92.3 18.5 92.8L25.2 94.6C28.1 95.4 30.2 96.2 31.4 96.9C33.4 98.2 34.4 100.1 34.4 102.5C34.4 103.3 34.3 104.2 34.1 105.1C33.3 109 31 112 27.3 114.1C23.9 116 19.7 116.9 14.6 116.9C8.1 116.9 3.7 115.4 1.6 112.5C0.6 111.1 0.1 109.5 0.1 107.5C0 106.8 0.1 105.7 0.4 104.5Z" fill="#D0D2D3"/>
<path fill-rule="evenodd" clip-rule="evenodd" d="M260.3 104.5H271C270.9 105.2 270.8 105.7 270.8 106.2C270.8 108.9 272.6 110.2 276.2 110.2C280 110.2 282.2 108.8 282.8 106C282.9 105.7 282.9 105.3 282.9 105C282.9 103.7 282 102.9 280.2 102.4L271.3 100.1C266.3 98.8 263.8 96.2 263.8 92.4C263.8 91.7 263.9 90.9 264.1 90C264.8 86.7 266.7 84.1 269.7 82C273.1 79.7 277.4 78.5 282.8 78.5C291.8 78.5 296.3 81.3 296.3 86.8C296.3 87.7 296.2 88.8 295.9 90.2H285.1C285.3 89.5 285.4 88.9 285.4 88.5C285.4 86.3 284 85.1 281.3 85.1C279.8 85.1 278.5 85.5 277.4 86.2C276.3 86.9 275.6 87.9 275.4 89C275.3 89.3 275.3 89.6 275.3 89.9C275.3 91.3 276.3 92.3 278.4 92.8L285.1 94.6C288 95.4 290.1 96.2 291.3 96.9C293.3 98.2 294.3 100.1 294.3 102.5C294.3 103.3 294.2 104.2 294 105.1C293.2 109 290.9 112 287.2 114.1C283.8 116 279.6 116.9 274.5 116.9C268 116.9 263.6 115.4 261.5 112.5C260.5 111.1 260 109.5 260 107.5C260 106.8 260.1 105.7 260.3 104.5Z" fill="#D0D2D3"/>
<path fill-rule="evenodd" clip-rule="evenodd" d="M165.7 36V25.3C166.4 25.4 166.9 25.5 167.4 25.5C170.1 25.5 171.4 23.7 171.4 20.1C171.4 16.3 170 14.1 167.2 13.5C166.9 13.4 166.5 13.4 166.2 13.4C164.9 13.4 164.1 14.3 163.6 16.1L161.3 25C160 30 157.4 32.5 153.6 32.5C152.9 32.5 152.1 32.4 151.2 32.2C147.9 31.5 145.3 29.6 143.2 26.6C140.9 23.2 139.7 18.9 139.7 13.5C139.7 4.5 142.5 0 148 0C148.9 0 150 0.1 151.4 0.4V11.2C150.7 11 150.1 10.9 149.7 10.9C147.5 10.9 146.3 12.3 146.3 15C146.3 16.5 146.7 17.8 147.4 18.9C148.1 20 149.1 20.7 150.2 20.9C150.5 21 150.8 21 151.1 21C152.5 21 153.5 20 154 17.9L155.8 11.2C156.6 8.3 157.4 6.2 158.1 5C159.4 3 161.3 2 163.7 2C164.5 2 165.4 2.1 166.3 2.3C170.2 3.1 173.2 5.4 175.3 9.1C177.2 12.5 178.1 16.7 178.1 21.8C178.1 28.3 176.6 32.7 173.7 34.8C172.3 35.8 170.7 36.3 168.7 36.3C168 36.4 167 36.2 165.7 36Z" fill="#D0D2D3"/>
<path fill-rule="evenodd" clip-rule="evenodd" d="M155.9 194.2V183.5C156.6 183.6 157.1 183.7 157.6 183.7C160.3 183.7 161.6 181.9 161.6 178.3C161.6 174.5 160.2 172.3 157.4 171.7C157.1 171.6 156.7 171.6 156.4 171.6C155.1 171.6 154.3 172.5 153.8 174.3L151.5 183.2C150.2 188.2 147.6 190.7 143.8 190.7C143.1 190.7 142.3 190.6 141.4 190.4C138.1 189.7 135.5 187.8 133.4 184.8C131.1 181.4 129.9 177.1 129.9 171.7C129.9 162.7 132.7 158.2 138.2 158.2C139.1 158.2 140.2 158.3 141.6 158.6V169.4C140.9 169.2 140.3 169.1 139.9 169.1C137.7 169.1 136.5 170.5 136.5 173.2C136.5 174.7 136.9 176 137.6 177.1C138.3 178.2 139.3 178.9 140.4 179.1C140.7 179.2 141 179.2 141.3 179.2C142.7 179.2 143.7 178.2 144.2 176.1L146 169.4C146.8 166.5 147.6 164.4 148.3 163.2C149.6 161.2 151.5 160.2 153.9 160.2C154.7 160.2 155.6 160.3 156.5 160.5C160.4 161.3 163.4 163.6 165.5 167.3C167.4 170.7 168.3 174.9 168.3 180C168.3 186.5 166.8 190.9 163.9 193C162.5 194 160.9 194.5 158.9 194.5C158.2 194.6 157.2 194.5 155.9 194.2Z" fill="#D0D2D3"/>
<path fill-rule="evenodd" clip-rule="evenodd" d="M159.8 84.5002L157.8 93.9002H161.8C164.1 93.9002 165.6 93.8002 166.3 93.6002C168.3 93.0002 169.6 91.5002 170.1 89.2002C170.2 88.7002 170.3 88.3002 170.3 87.9002C170.3 86.4002 169.6 85.4002 168.1 84.9002C167.2 84.6002 165.8 84.5002 163.8 84.5002H159.8ZM195.2 101.1H205.8L204.2 85.1002H204L195.2 101.1ZM119.4 99.6002L117.5 108.7H123.5C127.2 108.7 129.4 107.2 130 104.2C130.1 103.7 130.2 103.3 130.2 102.9C130.2 100.7 128.5 99.5002 125.1 99.5002H119.4V99.6002ZM122.6 84.2002L120.8 92.8002H125.9C127.8 92.8002 129.1 92.6002 129.8 92.3002C131.3 91.6002 132.2 90.3002 132.6 88.6002C132.9 87.1002 132.7 86.0002 131.8 85.2002C131.2 84.6002 130.1 84.3002 128.5 84.3002H122.6V84.2002ZM105.4 115.8L113.6 77.3002H134.7C135.4 77.4002 135.9 77.4002 136.4 77.5002C138.9 78.0002 140.8 78.9002 142.1 80.3002C143.3 81.6002 143.9 83.1002 143.9 85.0002C143.9 85.6002 143.8 86.3002 143.7 87.0002C142.7 91.5002 139.3 94.4002 133.5 95.8002L133.4 95.9002C138.5 96.8002 141 99.2002 141 103.1C141 105.5 140.3 107.7 139 109.7C137.6 111.7 135.8 113.2 133.5 114.3C131.2 115.4 127.6 115.9 122.6 115.9H105.4V115.8ZM36.5 103.3H47.2C47.1 104 47 104.5 47 105C47 107.7 48.8 109 52.4 109C56.2 109 58.4 107.6 59 104.8C59.1 104.5 59.1 104.1 59.1 103.8C59.1 102.5 58.2 101.7 56.4 101.2L47.5 98.9002C42.5 97.6002 40 95.0002 40 91.2002C40 90.5002 40.1 89.7002 40.3 88.8002C41 85.5002 42.9 82.9002 45.9 80.8002C49.3 78.5002 53.6 77.3002 59 77.3002C68 77.3002 72.5 80.1002 72.5 85.6002C72.5 86.5002 72.4 87.6002 72.1 89.0002H61.3C61.5 88.3002 61.6 87.7002 61.6 87.3002C61.6 85.1002 60.2 83.9002 57.5 83.9002C56 83.9002 54.7 84.3002 53.6 85.0002C52.5 85.7002 51.8 86.7002 51.6 87.8002C51.5 88.1002 51.5 88.4002 51.5 88.7002C51.5 90.1002 52.5 91.1002 54.6 91.6002L61.3 93.4002C64.2 94.2002 66.3 95.0002 67.5 95.7002C69.5 97.0002 70.5 98.9002 70.5 101.3C70.5 102.1 70.4 103 70.2 103.9C69.4 107.8 67.1 110.8 63.4 112.9C60 114.8 55.8 115.7 50.7 115.7C44.2 115.7 39.8 114.2 37.7 111.3C36.7 109.9 36.2 108.3 36.2 106.3C36.2 105.6 36.3 104.6 36.5 103.3ZM71.6 115.8L79.8 77.5002H109L107.4 84.8002H88.9L87.2 92.8002H104.7L103.1 100.1H85.6L83.9 108.3H102.9L101.3 115.8H71.6ZM222.3 115.8L230.5 77.5002H259.7L258.1 84.8002H239.6L237.9 92.8002H255.4L253.8 100.1H236.3L234.6 108.3H253.6L252 115.8H222.3ZM119.5 49.3002H190.1L192.7 36.2002H122.1L119.5 49.3002ZM115.2 69.6002H185.8L188.4 56.5002H117.8L115.2 69.6002ZM101.1 136.8H171.7L174.3 123.7H103.7L101.1 136.8ZM96.7 157.1H167.3L170 144H99.4L96.7 157.1ZM176.1 115.8L199.7 77.6002H212.8L219.9 115.8H207.7L206.7 108.1H191.1L186.8 115.8H176.1H164.4C164.3 114.4 164.5 111.5 165 107.1C165.1 105.6 165.2 104.5 165.2 104C165.2 102.8 164.9 102 164.3 101.5C163.7 101 162.5 100.8 160.8 100.8H156.3L153.1 115.8H142.3L150.5 77.5002H168.5C171.6 77.5002 173.6 77.6002 174.6 77.7002C177 78.1002 178.8 78.9002 179.8 80.2002C180.8 81.4002 181.3 82.9002 181.3 84.7002C181.3 85.6002 181.2 86.6002 181 87.6002C180.3 90.9002 178.6 93.3002 175.9 94.7002C174.1 95.7002 172 96.3002 169.5 96.7002L169.4 96.9002C172.2 97.0002 174.1 97.5002 175.1 98.5002C176 99.4002 176.4 100.8 176.4 102.8C176.4 103.5 176.3 104.6 176.2 106.3C176 111.1 175.9 114.2 176.1 115.8Z" fill="#005EB8"/>
<path d="M259.8 36.2002H36.4V157.1H259.8V36.2002Z" stroke="#D0D2D3" stroke-miterlimit="10"/>
</g>
<defs>
<clipPath id="clip0">
<rect width="296.3" height="194.6" fill="white"/>
</clipPath>
</defs>
</svg>
